<?xml version="1.0" standalone="no"?>
<svg xmlns="http://www.w3.org/2000/svg" viewBox="0 0 1440 320">
    <path fill="#0099ff" fill-opacity="1"
          d="M0,128L8,138.7C16,149,32,171,48,165.3C64,160,80,128,96,149.3C112,171,128,245,144,256C160,267,176,213,192,186.7C208,160,224,160,240,154.7C256,149,272,139,288,138.7C304,139,320,149,336,160C352,171,368,181,384,160C400,139,416,85,432,69.3C448,53,464,75,480,122.7C496,171,512,245,528,277.3C544,309,560,299,576,266.7C592,235,608,181,624,176C640,171,656,213,672,218.7C688,224,704,192,720,170.7C736,149,752,139,768,160C784,181,800,235,816,234.7C832,235,848,181,864,176C880,171,896,213,912,240C928,267,944,277,960,240C976,203,992,117,1008,112C1024,107,1040,181,1056,213.3C1072,245,1088,235,1104,208C1120,181,1136,139,1152,122.7C1168,107,1184,117,1200,106.7C1216,96,1232,64,1248,80C1264,96,1280,160,1296,197.3C1312,235,1328,245,1344,229.3C1360,213,1376,171,1392,149.3C1408,128,1424,128,1432,128L1440,128L1440,320L1432,320C1424,320,1408,320,1392,320C1376,320,1360,320,1344,320C1328,320,1312,320,1296,320C1280,320,1264,320,1248,320C1232,320,1216,320,1200,320C1184,320,1168,320,1152,320C1136,320,1120,320,1104,320C1088,320,1072,320,1056,320C1040,320,1024,320,1008,320C992,320,976,320,960,320C944,320,928,320,912,320C896,320,880,320,864,320C848,320,832,320,816,320C800,320,784,320,768,320C752,320,736,320,720,320C704,320,688,320,672,320C656,320,640,320,624,320C608,320,592,320,576,320C560,320,544,320,528,320C512,320,496,320,480,320C464,320,448,320,432,320C416,320,400,320,384,320C368,320,352,320,336,320C320,320,304,320,288,320C272,320,256,320,240,320C224,320,208,320,192,320C176,320,160,320,144,320C128,320,112,320,96,320C80,320,64,320,48,320C32,320,16,320,8,320L0,320Z"></path>
</svg>
